<?xml version="1.0" encoding="UTF-8"?>
<?xml-stylesheet href="https://cdnjs.cloudflare.com/ajax/libs/font-awesome/6.5.1/css/all.min.css" type="text/css"?>
<svg aria-roledescription="er" role="graphics-document document" viewBox="0 0 177.86703491210938 293" style="max-width: 100%; max-height: 100%; background: transparent; color: rgb(51, 51, 51);" xmlns="http://www.w3.org/2000/svg" width="100%" id="mermaid-image-editor"><style>#mermaid-image-editor{font-family:"trebuchet ms",verdana,arial,sans-serif;font-size:16px;fill:#333;}#mermaid-image-editor .error-icon{fill:#552222;}#mermaid-image-editor .error-text{fill:#552222;stroke:#552222;}#mermaid-image-editor .edge-thickness-normal{stroke-width:1px;}#mermaid-image-editor .edge-thickness-thick{stroke-width:3.5px;}#mermaid-image-editor .edge-pattern-solid{stroke-dasharray:0;}#mermaid-image-editor .edge-thickness-invisible{stroke-width:0;fill:none;}#mermaid-image-editor .edge-pattern-dashed{stroke-dasharray:3;}#mermaid-image-editor .edge-pattern-dotted{stroke-dasharray:2;}#mermaid-image-editor .marker{fill:#333333;stroke:#333333;}#mermaid-image-editor .marker.cross{stroke:#333333;}#mermaid-image-editor svg{font-family:"trebuchet ms",verdana,arial,sans-serif;font-size:16px;}#mermaid-image-editor p{margin:0;}#mermaid-image-editor .entityBox{fill:#ECECFF;stroke:#9370DB;}#mermaid-image-editor .attributeBoxOdd{fill:#ffffff;stroke:#9370DB;}#mermaid-image-editor .attributeBoxEven{fill:#f2f2f2;stroke:#9370DB;}#mermaid-image-editor .relationshipLabelBox{fill:hsl(80, 100%, 96.2745098039%);opacity:0.7;background-color:hsl(80, 100%, 96.2745098039%);}#mermaid-image-editor .relationshipLabelBox rect{opacity:0.5;}#mermaid-image-editor .relationshipLine{stroke:#333333;}#mermaid-image-editor .entityTitleText{text-anchor:middle;font-size:18px;fill:#333;}#mermaid-image-editor #MD_PARENT_START{fill:#f5f5f5!important;stroke:#333333!important;stroke-width:1;}#mermaid-image-editor #MD_PARENT_END{fill:#f5f5f5!important;stroke:#333333!important;stroke-width:1;}#mermaid-image-editor :root{--mermaid-font-family:"trebuchet ms",verdana,arial,sans-serif;}</style><g></g><defs><marker orient="auto" markerHeight="240" markerWidth="190" refY="7" refX="0" id="MD_PARENT_START"><path d="M 18,7 L9,13 L1,7 L9,1 Z"></path></marker></defs><defs><marker orient="auto" markerHeight="28" markerWidth="20" refY="7" refX="19" id="MD_PARENT_END"><path d="M 18,7 L9,13 L1,7 L9,1 Z"></path></marker></defs><defs><marker orient="auto" markerHeight="18" markerWidth="18" refY="9" refX="0" id="ONLY_ONE_START"><path d="M9,0 L9,18 M15,0 L15,18" fill="none" stroke="gray"></path></marker></defs><defs><marker orient="auto" markerHeight="18" markerWidth="18" refY="9" refX="18" id="ONLY_ONE_END"><path d="M3,0 L3,18 M9,0 L9,18" fill="none" stroke="gray"></path></marker></defs><defs><marker orient="auto" markerHeight="18" markerWidth="30" refY="9" refX="0" id="ZERO_OR_ONE_START"><circle r="6" cy="9" cx="21" fill="white" stroke="gray"></circle><path d="M9,0 L9,18" fill="none" stroke="gray"></path></marker></defs><defs><marker orient="auto" markerHeight="18" markerWidth="30" refY="9" refX="30" id="ZERO_OR_ONE_END"><circle r="6" cy="9" cx="9" fill="white" stroke="gray"></circle><path d="M21,0 L21,18" fill="none" stroke="gray"></path></marker></defs><defs><marker orient="auto" markerHeight="36" markerWidth="45" refY="18" refX="18" id="ONE_OR_MORE_START"><path d="M0,18 Q 18,0 36,18 Q 18,36 0,18 M42,9 L42,27" fill="none" stroke="gray"></path></marker></defs><defs><marker orient="auto" markerHeight="36" markerWidth="45" refY="18" refX="27" id="ONE_OR_MORE_END"><path d="M3,9 L3,27 M9,18 Q27,0 45,18 Q27,36 9,18" fill="none" stroke="gray"></path></marker></defs><defs><marker orient="auto" markerHeight="36" markerWidth="57" refY="18" refX="18" id="ZERO_OR_MORE_START"><circle r="6" cy="18" cx="48" fill="white" stroke="gray"></circle><path d="M0,18 Q18,0 36,18 Q18,36 0,18" fill="none" stroke="gray"></path></marker></defs><defs><marker orient="auto" markerHeight="36" markerWidth="57" refY="18" refX="39" id="ZERO_OR_MORE_END"><circle r="6" cy="18" cx="9" fill="white" stroke="gray"></circle><path d="M21,18 Q39,0 57,18 Q39,36 21,18" fill="none" stroke="gray"></path></marker></defs><path style="stroke: gray; fill: none;" marker-start="url(#ONLY_ONE_START)" marker-end="url(#ZERO_OR_MORE_END)" d="M88.934,86L88.934,94.333C88.934,102.667,88.934,119.333,88.934,136C88.934,152.667,88.934,169.333,88.934,177.667L88.934,186" class="er relationshipLine"></path><g transform="translate(38.93351745605469,20 )" id="entity-SIGNAL-1608dc36-aac7-58b8-b37c-01f137a0ca75"><rect height="66" width="100" y="0" x="0" class="er entityBox"></rect><text style="dominant-baseline: middle; text-anchor: middle; font-size: 12px;" transform="translate(50,12)" y="0" x="0" id="text-entity-SIGNAL-1608dc36-aac7-58b8-b37c-01f137a0ca75" class="er entityLabel">SIGNAL</text><rect height="21" width="36.9595947265625" y="24" x="0" class="er attributeBoxOdd"></rect><text style="dominant-baseline: middle; font-size: 10.2px;" transform="translate(5,34.5)" y="0" x="0" id="text-entity-SIGNAL-1608dc36-aac7-58b8-b37c-01f137a0ca75-attr-1-type" class="er entityLabel">int</text><rect height="21" width="37.531646728515625" y="24" x="36.9595947265625" class="er attributeBoxOdd"></rect><text style="dominant-baseline: middle; font-size: 10.2px;" transform="translate(41.9595947265625,34.5)" y="0" x="0" id="text-entity-SIGNAL-1608dc36-aac7-58b8-b37c-01f137a0ca75-attr-1-name" class="er entityLabel">id</text><rect height="21" width="25.508758544921875" y="24" x="74.49124145507812" class="er attributeBoxOdd"></rect><text style="dominant-baseline: middle; font-size: 10.2px;" transform="translate(79.49124145507812,34.5)" y="0" x="0" id="text-entity-SIGNAL-1608dc36-aac7-58b8-b37c-01f137a0ca75-attr-1-key" class="er entityLabel">PK</text><rect height="21" width="36.9595947265625" y="45" x="0" class="er attributeBoxEven"></rect><text style="dominant-baseline: middle; font-size: 10.2px;" transform="translate(5,55.5)" y="0" x="0" id="text-entity-SIGNAL-1608dc36-aac7-58b8-b37c-01f137a0ca75-attr-2-type" class="er entityLabel">string</text><rect height="21" width="37.531646728515625" y="45" x="36.9595947265625" class="er attributeBoxEven"></rect><text style="dominant-baseline: middle; font-size: 10.2px;" transform="translate(41.9595947265625,55.5)" y="0" x="0" id="text-entity-SIGNAL-1608dc36-aac7-58b8-b37c-01f137a0ca75-attr-2-name" class="er entityLabel">name</text><rect height="21" width="25.508758544921875" y="45" x="74.49124145507812" class="er attributeBoxEven"></rect><text style="dominant-baseline: middle; font-size: 10.2px;" transform="translate(79.49124145507812,55.5)" y="0" x="0" id="text-entity-SIGNAL-1608dc36-aac7-58b8-b37c-01f137a0ca75-attr-2-key" class="er entityLabel"></text></g><g transform="translate(20,186 )" id="entity-DATA-351e1528-a870-52d8-977a-3b778b624a2f"><rect height="87" width="137.86703491210938" y="0" x="0" class="er entityBox"></rect><text style="dominant-baseline: middle; text-anchor: middle; font-size: 12px;" transform="translate(68.93351745605469,12)" y="0" x="0" id="text-entity-DATA-351e1528-a870-52d8-977a-3b778b624a2f" class="er entityLabel">DATA</text><rect height="21" width="57.322052001953125" y="24" x="0" class="er attributeBoxOdd"></rect><text style="dominant-baseline: middle; font-size: 10.2px;" transform="translate(5,34.5)" y="0" x="0" id="text-entity-DATA-351e1528-a870-52d8-977a-3b778b624a2f-attr-1-type" class="er entityLabel">timestamp</text><rect height="21" width="57.322052001953125" y="24" x="57.322052001953125" class="er attributeBoxOdd"></rect><text style="dominant-baseline: middle; font-size: 10.2px;" transform="translate(62.322052001953125,34.5)" y="0" x="0" id="text-entity-DATA-351e1528-a870-52d8-977a-3b778b624a2f-attr-1-name" class="er entityLabel">timestamp</text><rect height="21" width="23.222930908203125" y="24" x="114.64410400390625" class="er attributeBoxOdd"></rect><text style="dominant-baseline: middle; font-size: 10.2px;" transform="translate(119.64410400390625,34.5)" y="0" x="0" id="text-entity-DATA-351e1528-a870-52d8-977a-3b778b624a2f-attr-1-key" class="er entityLabel"></text><rect height="21" width="57.322052001953125" y="45" x="0" class="er attributeBoxEven"></rect><text style="dominant-baseline: middle; font-size: 10.2px;" transform="translate(5,55.5)" y="0" x="0" id="text-entity-DATA-351e1528-a870-52d8-977a-3b778b624a2f-attr-2-type" class="er entityLabel">int</text><rect height="21" width="57.322052001953125" y="45" x="57.322052001953125" class="er attributeBoxEven"></rect><text style="dominant-baseline: middle; font-size: 10.2px;" transform="translate(62.322052001953125,55.5)" y="0" x="0" id="text-entity-DATA-351e1528-a870-52d8-977a-3b778b624a2f-attr-2-name" class="er entityLabel">signal_id</text><rect height="21" width="23.222930908203125" y="45" x="114.64410400390625" class="er attributeBoxEven"></rect><text style="dominant-baseline: middle; font-size: 10.2px;" transform="translate(119.64410400390625,55.5)" y="0" x="0" id="text-entity-DATA-351e1528-a870-52d8-977a-3b778b624a2f-attr-2-key" class="er entityLabel">FK</text><rect height="21" width="57.322052001953125" y="66" x="0" class="er attributeBoxOdd"></rect><text style="dominant-baseline: middle; font-size: 10.2px;" transform="translate(5,76.5)" y="0" x="0" id="text-entity-DATA-351e1528-a870-52d8-977a-3b778b624a2f-attr-3-type" class="er entityLabel">float</text><rect height="21" width="57.322052001953125" y="66" x="57.322052001953125" class="er attributeBoxOdd"></rect><text style="dominant-baseline: middle; font-size: 10.2px;" transform="translate(62.322052001953125,76.5)" y="0" x="0" id="text-entity-DATA-351e1528-a870-52d8-977a-3b778b624a2f-attr-3-name" class="er entityLabel">value</text><rect height="21" width="23.222930908203125" y="66" x="114.64410400390625" class="er attributeBoxOdd"></rect><text style="dominant-baseline: middle; font-size: 10.2px;" transform="translate(119.64410400390625,76.5)" y="0" x="0" id="text-entity-DATA-351e1528-a870-52d8-977a-3b778b624a2f-attr-3-key" class="er entityLabel"></text></g><rect height="14" width="52.03125" y="129" x="62.918373107910156" class="er relationshipLabelBox"></rect><text style="text-anchor: middle; dominant-baseline: middle; font-size: 12px;" y="136" x="88.93399810791016" id="rel4" class="er relationshipLabel">has many</text></svg>